<svg width="308" height="100" viewBox="0 0 308 100" fill="none" xmlns="http://www.w3.org/2000/svg">
<path d="M50 46.2079V0H69.542C72.7228 0 75.4024 0.506086 77.581 1.51826C79.7596 2.48642 81.4154 3.87266 82.5482 5.67697C83.7247 7.43727 84.3129 9.52762 84.3129 11.948C84.3129 14.2804 83.8118 16.2388 82.8097 17.823C81.8075 19.4073 80.4786 20.6175 78.8228 21.4537C77.2107 22.2898 75.4242 22.7959 73.4635 22.9719L74.5092 22.1798C76.6442 22.2678 78.5178 22.8399 80.13 23.8961C81.7421 24.9522 83.0057 26.3385 83.9207 28.0548C84.8793 29.7271 85.3586 31.5754 85.3586 33.5997C85.3586 36.1081 84.7704 38.3085 83.594 40.2008C82.4175 42.0932 80.6964 43.5674 78.4307 44.6236C76.1649 45.6798 73.4199 46.2079 70.1956 46.2079H50ZM59.8037 38.1545H68.5616C70.7402 38.1545 72.4178 37.6704 73.5942 36.7022C74.8142 35.6901 75.4242 34.2378 75.4242 32.3455C75.4242 30.4532 74.7924 28.9789 73.5288 27.9228C72.3088 26.8666 70.6095 26.3385 68.4309 26.3385H59.8037V38.1545ZM59.8037 19.0112H67.8427C69.9342 19.0112 71.5245 18.5272 72.6138 17.559C73.7467 16.5908 74.3131 15.2266 74.3131 13.4663C74.3131 11.706 73.7467 10.3418 72.6138 9.3736C71.5245 8.36142 69.9124 7.85534 67.7773 7.85534H59.8037V19.0112Z" fill="#FAF6EE"/>
<path d="M98.9339 46.2079L115.6 0H126.842L143.508 46.2079H133.116L127.136 28.6819L121.156 11.1559L109.195 46.2079H98.9339Z" fill="#E8614D"/>
<path d="M161.5 46.2079V0H171.304L191.369 30.3652V0H201.172V46.2079H191.369L171.304 15.9747V46.2079H161.5Z" fill="#FAF6EE"/>
<path d="M230.721 46.2079V7.98736H217.453V0H253.792V7.98736H240.525V46.2079H230.721Z" fill="#FAF6EE"/>
<path d="M289.112 47C285.669 47 282.532 46.3179 279.7 44.9537C276.911 43.5454 274.689 41.4551 273.034 38.6826C271.421 35.9101 270.615 32.4115 270.615 28.1868V0H280.419V28.2528C280.419 30.3212 280.746 32.0815 281.399 33.5337C282.096 34.986 283.099 36.0861 284.406 36.8343C285.757 37.5384 287.369 37.8904 289.242 37.8904C291.159 37.8904 292.772 37.5384 294.079 36.8343C295.429 36.0861 296.453 34.986 297.151 33.5337C297.848 32.0815 298.196 30.3212 298.196 28.2528V0H308V28.1868C308 32.4115 307.129 35.9101 305.386 38.6826C303.686 41.4551 301.399 43.5454 298.523 44.9537C295.691 46.3179 292.554 47 289.112 47Z" fill="#FAF6EE"/>
<path d="M0 100V54H9.78206V92.3771H29.4766V100H0Z" fill="#FAF6EE"/>
<path d="M50.1076 100V54H80.6928V61.9514H59.8896V72.7943H78.7364V80.4171H59.8896V92.0486H80.6928V100H50.1076Z" fill="#FAF6EE"/>
<path d="M98.4238 100L115.053 54H126.27L142.9 100H132.531L120.596 65.1057L108.662 100H98.4238Z" fill="#E8614D"/>
<path d="M161.595 100V54H179.333C183.029 54 186.094 54.6571 188.528 55.9714C191.006 57.2419 192.832 58.9505 194.006 61.0971C195.224 63.2438 195.832 65.6314 195.832 68.26C195.832 70.7133 195.245 73.0133 194.071 75.16C192.941 77.3067 191.159 79.0371 188.724 80.3514C186.289 81.6657 183.137 82.3229 179.268 82.3229H171.377V100H161.595ZM185.137 100L175.942 79.8914H186.441L196.223 100H185.137ZM171.377 75.2257H178.746C181.181 75.2257 182.963 74.6343 184.094 73.4514C185.268 72.2686 185.855 70.6695 185.855 68.6543C185.855 66.6829 185.268 65.1276 184.094 63.9886C182.963 62.8057 181.181 62.2143 178.746 62.2143H171.377V75.2257Z" fill="#FAF6EE"/>
<path d="M216.415 100V54H226.197L246.218 84.2286V54H256V100H246.218L226.197 69.9029V100H216.415Z" fill="#FAF6EE"/>
</svg>
